<?xml version="1.0" encoding="UTF-8"?>
<svg version="1.1" xmlns="http://www.w3.org/2000/svg" width="16" height="16">
<path d="M0 0 C5.28 0 10.56 0 16 0 C16 5.28 16 10.56 16 16 C10.72 16 5.44 16 0 16 C0 10.72 0 5.44 0 0 Z " fill="#614D42" transform="translate(0,0)"/>
<path d="M0 0 C5.28 0 10.56 0 16 0 C16 5.28 16 10.56 16 16 C10.72 16 5.44 16 0 16 C0 10.72 0 5.44 0 0 Z M3.0625 3.0625 C0.71261529 5.82825105 0.71261529 5.82825105 0.9375 9.125 C1.81293333 12.01645649 1.81293333 12.01645649 3.6875 13.9375 C6.87297124 15.40109489 8.67881323 14.98928968 12 14 C13.98029682 12.93654948 13.98029682 12.93654948 15 11 C15.39015561 7.87875511 15.55877549 5.90024939 13.875 3.1875 C9.72343688 0.55817669 7.13101287 0.20588458 3.0625 3.0625 Z " fill="#0E151E" transform="translate(0,0)"/>
<path d="M0 0 C0.99 0 1.98 0 3 0 C3 3.96 3 7.92 3 12 C-1 11 -1 11 -3 8 C-2.55555556 2.55555556 -2.55555556 2.55555556 0 0 Z " fill="#53433C" transform="translate(4,2)"/>
<path d="M0 0 C1.32 0 2.64 0 4 0 C4.25 2.8125 4.25 2.8125 4 6 C2 7.875 2 7.875 0 9 C0 6.03 0 3.06 0 0 Z " fill="#4A3B38" transform="translate(11,5)"/>
<path d="M0 0 C0.66 0 1.32 0 2 0 C2 3.96 2 7.92 2 12 C1.34 12 0.68 12 0 12 C0.03255208 9.98177083 0.06510417 7.96354167 0.09765625 5.9453125 C0.12649242 3.91814596 0.12649242 3.91814596 -1 2 C-0.67 1.34 -0.34 0.68 0 0 Z " fill="#866753" transform="translate(5,2)"/>
</svg>
